<svg preserveAspectRatio="none" width="100%" height="100%" overflow="visible" style="display: block;" viewBox="0 0 150 150" fill="none" xmlns="http://www.w3.org/2000/svg">
<g id="instagram (1) 1" clip-path="url(#clip0_0_7)">
<g id="Vector">
</g>
<foreignObject x="0" y="0" width="0" height="0"><div xmlns="http://www.w3.org/1999/xhtml" style="backdrop-filter:blur(0px);clip-path:url(#bgblur_1_0_7_clip_path);height:100%;width:100%"></div></foreignObject><path id="Vector_2" data-figma-bg-blur-radius="0" d="M43.938 0.525105C35.958 0.901355 30.5086 2.17511 25.7443 4.04636C20.8143 5.96823 16.6349 8.54635 12.4768 12.7195C8.31926 16.8926 5.75801 21.0745 3.85051 26.0132C2.00426 30.787 0.75301 36.2414 0.40051 44.2257C0.0480099 52.2101 -0.0301151 54.777 0.00925993 75.1445C0.0480099 95.5107 0.13801 98.0639 0.524885 106.065C0.906135 114.043 2.17489 119.491 4.04676 124.257C5.97176 129.188 8.54676 133.365 12.7218 137.524C16.8961 141.684 21.0749 144.239 26.0249 146.149C30.7949 147.993 36.2505 149.25 44.2336 149.599C52.2168 149.949 54.7861 150.031 75.1474 149.991C95.5086 149.953 98.0724 149.862 106.071 149.483C114.071 149.103 119.49 147.825 124.257 145.962C129.188 144.033 133.369 141.462 137.525 137.286C141.681 133.11 144.241 128.925 146.147 123.984C147.995 119.214 149.251 113.759 149.597 105.781C149.947 97.7757 150.029 95.2201 149.991 74.8564C149.951 54.492 149.859 51.9389 149.48 43.9407C149.101 35.9426 147.83 30.5114 145.959 25.7426C144.032 20.812 141.459 16.6376 137.287 12.4751C133.114 8.31261 128.925 5.75511 123.986 3.85323C119.212 2.00636 113.761 0.74823 105.777 0.40323C97.7943 0.0582299 95.2249 -0.0311451 74.8561 0.00885494C54.4874 0.0476049 51.9374 0.135105 43.938 0.525105ZM44.8143 136.107C37.5018 135.789 33.5311 134.574 30.8849 133.557C27.3811 132.207 24.8849 130.575 22.248 127.963C19.6105 125.352 17.9911 122.847 16.623 119.351C15.5955 116.704 14.358 112.738 14.0161 105.426C13.6443 97.5226 13.5661 95.1495 13.5224 75.1257C13.4786 55.1026 13.5555 52.732 13.9018 44.8257C14.2143 37.5195 15.4368 33.5445 16.4518 30.8995C17.8018 27.3914 19.428 24.8995 22.0455 22.2645C24.663 19.6289 27.1605 18.0057 30.6599 16.6376C33.3036 15.6057 37.2693 14.3789 44.5786 14.0307C52.488 13.6557 54.858 13.5807 74.8786 13.537C94.8993 13.4932 97.2755 13.5682 105.188 13.917C112.494 14.2345 116.471 15.4451 119.113 16.467C122.618 17.817 125.113 19.4382 127.748 22.0607C130.384 24.682 132.008 27.1707 133.376 30.6776C134.409 33.3132 135.637 37.2776 135.982 44.592C136.358 52.5014 136.444 54.8732 136.479 74.892C136.516 94.9107 136.445 97.2882 136.098 105.192C135.779 112.504 134.567 116.476 133.548 119.126C132.198 122.628 130.571 125.126 127.952 127.759C125.333 130.394 122.839 132.016 119.337 133.384C116.697 134.415 112.727 135.645 105.424 135.993C97.5136 136.365 95.1436 136.443 75.1155 136.487C55.0874 136.531 52.7236 136.449 44.8143 136.107ZM105.956 34.9151C105.959 36.6953 106.49 38.4346 107.482 39.9131C108.473 41.3916 109.881 42.5428 111.527 43.2211C113.173 43.8994 114.983 44.0744 116.728 43.7239C118.473 43.3735 120.076 42.5132 121.332 41.2521C122.588 39.991 123.443 38.3855 123.787 36.6389C124.131 34.8922 123.949 33.0828 123.264 31.4395C122.58 29.7962 121.423 28.3927 119.941 27.4067C118.459 26.4207 116.718 25.8964 114.937 25.9001C112.551 25.9051 110.264 26.8575 108.58 28.5481C106.896 30.2386 105.952 32.5288 105.956 34.9151ZM36.4905 75.0751C36.5324 96.3451 53.8068 113.548 75.0718 113.508C96.338 113.468 113.553 96.1951 113.513 74.9251C113.472 53.6551 96.1943 36.447 74.9255 36.4889C53.6568 36.5307 36.4505 53.8076 36.4905 75.0751ZM49.9999 75.0482C49.9901 70.1037 51.4468 65.2674 54.1857 61.1508C56.9246 57.0341 60.8227 53.8221 65.387 51.9209C69.9514 50.0197 74.977 49.5146 79.8284 50.4697C84.6798 51.4247 89.1391 53.7968 92.6423 57.2861C96.1456 60.7755 98.5354 65.2253 99.5097 70.0728C100.484 74.9204 99.9989 79.948 98.1159 84.5199C96.2328 89.0918 93.0363 93.0026 88.9306 95.7579C84.8249 98.5131 79.9944 99.989 75.0499 99.9989C71.7667 100.006 68.5143 99.3658 65.4785 98.1156C62.4426 96.8654 59.6828 95.0294 57.3566 92.7124C55.0304 90.3955 53.1835 87.6429 51.9212 84.6121C50.6589 81.5812 50.006 78.3314 49.9999 75.0482Z" fill="var(--fill-0, #6c7b6b)"/>
</g>
<defs>
<clipPath id="bgblur_1_0_7_clip_path" transform="translate(0 0)"><path d="M43.938 0.525105C35.958 0.901355 30.5086 2.17511 25.7443 4.04636C20.8143 5.96823 16.6349 8.54635 12.4768 12.7195C8.31926 16.8926 5.75801 21.0745 3.85051 26.0132C2.00426 30.787 0.75301 36.2414 0.40051 44.2257C0.0480099 52.2101 -0.0301151 54.777 0.00925993 75.1445C0.0480099 95.5107 0.13801 98.0639 0.524885 106.065C0.906135 114.043 2.17489 119.491 4.04676 124.257C5.97176 129.188 8.54676 133.365 12.7218 137.524C16.8961 141.684 21.0749 144.239 26.0249 146.149C30.7949 147.993 36.2505 149.25 44.2336 149.599C52.2168 149.949 54.7861 150.031 75.1474 149.991C95.5086 149.953 98.0724 149.862 106.071 149.483C114.071 149.103 119.49 147.825 124.257 145.962C129.188 144.033 133.369 141.462 137.525 137.286C141.681 133.11 144.241 128.925 146.147 123.984C147.995 119.214 149.251 113.759 149.597 105.781C149.947 97.7757 150.029 95.2201 149.991 74.8564C149.951 54.492 149.859 51.9389 149.48 43.9407C149.101 35.9426 147.83 30.5114 145.959 25.7426C144.032 20.812 141.459 16.6376 137.287 12.4751C133.114 8.31261 128.925 5.75511 123.986 3.85323C119.212 2.00636 113.761 0.74823 105.777 0.40323C97.7943 0.0582299 95.2249 -0.0311451 74.8561 0.00885494C54.4874 0.0476049 51.9374 0.135105 43.938 0.525105ZM44.8143 136.107C37.5018 135.789 33.5311 134.574 30.8849 133.557C27.3811 132.207 24.8849 130.575 22.248 127.963C19.6105 125.352 17.9911 122.847 16.623 119.351C15.5955 116.704 14.358 112.738 14.0161 105.426C13.6443 97.5226 13.5661 95.1495 13.5224 75.1257C13.4786 55.1026 13.5555 52.732 13.9018 44.8257C14.2143 37.5195 15.4368 33.5445 16.4518 30.8995C17.8018 27.3914 19.428 24.8995 22.0455 22.2645C24.663 19.6289 27.1605 18.0057 30.6599 16.6376C33.3036 15.6057 37.2693 14.3789 44.5786 14.0307C52.488 13.6557 54.858 13.5807 74.8786 13.537C94.8993 13.4932 97.2755 13.5682 105.188 13.917C112.494 14.2345 116.471 15.4451 119.113 16.467C122.618 17.817 125.113 19.4382 127.748 22.0607C130.384 24.682 132.008 27.1707 133.376 30.6776C134.409 33.3132 135.637 37.2776 135.982 44.592C136.358 52.5014 136.444 54.8732 136.479 74.892C136.516 94.9107 136.445 97.2882 136.098 105.192C135.779 112.504 134.567 116.476 133.548 119.126C132.198 122.628 130.571 125.126 127.952 127.759C125.333 130.394 122.839 132.016 119.337 133.384C116.697 134.415 112.727 135.645 105.424 135.993C97.5136 136.365 95.1436 136.443 75.1155 136.487C55.0874 136.531 52.7236 136.449 44.8143 136.107ZM105.956 34.9151C105.959 36.6953 106.49 38.4346 107.482 39.9131C108.473 41.3916 109.881 42.5428 111.527 43.2211C113.173 43.8994 114.983 44.0744 116.728 43.7239C118.473 43.3735 120.076 42.5132 121.332 41.2521C122.588 39.991 123.443 38.3855 123.787 36.6389C124.131 34.8922 123.949 33.0828 123.264 31.4395C122.58 29.7962 121.423 28.3927 119.941 27.4067C118.459 26.4207 116.718 25.8964 114.937 25.9001C112.551 25.9051 110.264 26.8575 108.58 28.5481C106.896 30.2386 105.952 32.5288 105.956 34.9151ZM36.4905 75.0751C36.5324 96.3451 53.8068 113.548 75.0718 113.508C96.338 113.468 113.553 96.1951 113.513 74.9251C113.472 53.6551 96.1943 36.447 74.9255 36.4889C53.6568 36.5307 36.4505 53.8076 36.4905 75.0751ZM49.9999 75.0482C49.9901 70.1037 51.4468 65.2674 54.1857 61.1508C56.9246 57.0341 60.8227 53.8221 65.387 51.9209C69.9514 50.0197 74.977 49.5146 79.8284 50.4697C84.6798 51.4247 89.1391 53.7968 92.6423 57.2861C96.1456 60.7755 98.5354 65.2253 99.5097 70.0728C100.484 74.9204 99.9989 79.948 98.1159 84.5199C96.2328 89.0918 93.0363 93.0026 88.9306 95.7579C84.8249 98.5131 79.9944 99.989 75.0499 99.9989C71.7667 100.006 68.5143 99.3658 65.4785 98.1156C62.4426 96.8654 59.6828 95.0294 57.3566 92.7124C55.0304 90.3955 53.1835 87.6429 51.9212 84.6121C50.6589 81.5812 50.006 78.3314 49.9999 75.0482Z"/>
</clipPath><clipPath id="clip0_0_7">
<rect width="150" height="150" fill="white"/>
</clipPath>
</defs>
</svg>
